<svg width="48" height="56" viewBox="0 0 48 56" fill="none" xmlns="http://www.w3.org/2000/svg">
<path d="M26.0096 31.148C18.5163 38.6707 19.4416 46.2067 22.8443 51.8827C15.0269 48.5493 7.80959 35.3333 17.8096 23.3333C28.4763 12.6667 26.4763 8 26.4763 4C29.8096 10 35.0176 22.1067 26.0096 31.148Z" fill="url(#paint0_linear_27_113)"/>
<path d="M24.4709 52C22.8763 48.5427 21.2123 40.18 26.0443 35.3333C34.7483 26.36 33.3509 18.4973 33.1576 18.0227L33.1429 18C33.1469 18 33.1523 18.008 33.1576 18.0227C33.5163 18.588 40.3429 29.6627 35.3176 42C38.2176 40.3253 39.4509 38.0387 39.8096 37.3333C38.3083 49.4987 30.6336 51.5013 24.4709 52ZM21.8096 16.6667C17.8096 19.1107 8.76692 25.3333 8.23359 33.3333C7.70026 41.3333 12.2336 44.6667 14.9003 47.3333C13.5669 45.3333 10.9003 40.4 10.9003 34C10.9003 27.6 18.2536 19.556 21.8096 16.6667Z" fill="url(#paint1_linear_27_113)"/>
<path d="M24.1429 26.5833C23.2479 26.095 21.9904 25.3333 20.8096 25.3333C19.0596 25.3333 17.4763 26.3725 17.4763 29.5C17.4763 33.5825 18.3563 36.5083 19.7021 38.2808C20.1796 38.9108 21.3438 38.715 21.8413 38.0842C22.1729 37.6633 22.5238 36.885 22.8929 35.75C23.1363 35.1075 23.6363 34.4967 24.1429 34.5C24.6446 34.5 25.1513 35.1142 25.3929 35.75C25.7621 36.885 26.1129 37.6625 26.4446 38.0833C26.9421 38.7158 28.1113 38.9108 28.5838 38.2808C29.9296 36.5083 30.8096 33.5833 30.8096 29.5C30.8096 26.3833 29.2196 25.3333 27.4763 25.3333C26.2904 25.3333 25.0429 26.0925 24.1429 26.5833ZM24.1429 26.5833L26.6429 27.8333L24.1429 26.5833Z" fill="#B5FBEA"/>
<path d="M24.1429 26.5833C23.2479 26.095 21.9904 25.3333 20.8096 25.3333C19.0596 25.3333 17.4763 26.3725 17.4763 29.5C17.4763 33.5825 18.3563 36.5083 19.7021 38.2808C20.1796 38.9108 21.3438 38.715 21.8413 38.0842C22.1729 37.6633 22.5238 36.885 22.8929 35.75C23.1363 35.1075 23.6363 34.4967 24.1429 34.5C24.6446 34.5 25.1513 35.1142 25.3929 35.75C25.7621 36.885 26.1129 37.6625 26.4446 38.0833C26.9421 38.7158 28.1113 38.9108 28.5838 38.2808C29.9296 36.5083 30.8096 33.5833 30.8096 29.5C30.8096 26.3833 29.2196 25.3333 27.4763 25.3333C26.2904 25.3333 25.0429 26.0925 24.1429 26.5833ZM24.1429 26.5833L26.6429 27.8333" stroke="#153E43" stroke-width="1.66667" stroke-linecap="round" stroke-linejoin="round"/>
<defs>
<linearGradient id="paint0_linear_27_113" x1="27.4871" y1="-10.2052" x2="-2.57396" y2="44.5259" gradientUnits="userSpaceOnUse">
<stop stop-color="#3FD2E2"/>
<stop offset="1" stop-color="#23737C"/>
</linearGradient>
<linearGradient id="paint1_linear_27_113" x1="33.6229" y1="6.18444" x2="22.0461" y2="56.0684" gradientUnits="userSpaceOnUse">
<stop stop-color="#3FD2E2"/>
<stop offset="1" stop-color="#23737C"/>
</linearGradient>
</defs>
</svg>
