<svg width="180" height="180" viewBox="0 0 180 180" fill="none" xmlns="http://www.w3.org/2000/svg">
<ellipse opacity="0.1" cx="90" cy="174.6" rx="90" ry="5.4" fill="#B3E5FC"/>
<path fill-rule="evenodd" clip-rule="evenodd" d="M12.6 39.6002C12.6 27.6708 22.2706 18.0002 34.2 18.0002C46.1293 18.0002 55.8 27.6708 55.8 39.6002C55.8 45.3687 53.5387 50.6092 49.8542 54.4833C49.5863 54.7291 49.329 54.9864 49.0831 55.2544C45.209 58.9389 39.9686 61.2002 34.2 61.2002C22.2706 61.2002 12.6 51.5295 12.6 39.6002ZM45.9044 61.9229C42.407 63.7605 38.4249 64.8002 34.2 64.8002C33.5948 64.8002 32.9945 64.7788 32.4 64.7369V115.149C32.4 120.119 36.4294 124.149 41.4 124.149H45.7699V63.7701C45.7699 63.1426 45.8158 62.5258 45.9044 61.9229ZM28.8 64.2203C17.4773 61.7482 9 51.6642 9 39.6002C9 25.6826 20.2824 14.4002 34.2 14.4002C46.264 14.4002 56.3481 22.8775 58.8201 34.2002H121.629C128.587 34.2002 134.229 39.8414 134.229 46.8002V51.1701H138.598C145.557 51.1701 151.198 56.8113 151.198 63.7701V132.119C151.198 139.077 145.557 144.719 138.598 144.719H58.3699C51.4111 144.719 45.7699 139.077 45.7699 132.119V127.749H41.4C34.4412 127.749 28.8 122.108 28.8 115.149V64.2203ZM59.3367 37.8002C59.3787 38.3947 59.4 38.995 59.4 39.6002C59.4 43.8251 58.3603 47.8072 56.5228 51.3045C57.1257 51.216 57.7424 51.1701 58.3699 51.1701H130.629V46.8002C130.629 41.8296 126.599 37.8002 121.629 37.8002H59.3367ZM51.6637 57.7677C51.9029 57.5377 52.1376 57.3031 52.3675 57.0639C53.9601 55.6375 56.0637 54.7701 58.3699 54.7701H138.598C143.569 54.7701 147.598 58.7995 147.598 63.7701V132.119C147.598 137.089 143.569 141.119 138.598 141.119H58.3699C53.3994 141.119 49.3699 137.089 49.3699 132.119V63.7701C49.3699 61.4639 50.2373 59.3603 51.6637 57.7677ZM151.939 31.9221C154.558 31.9221 156.681 34.0452 156.681 36.6643C156.681 39.2834 154.558 41.4066 151.939 41.4066H142.183C139.564 41.4066 137.441 39.2834 137.441 36.6643C137.441 34.0452 139.564 31.9221 142.183 31.9221H151.939ZM153.081 36.6643C153.081 36.0335 152.569 35.5221 151.939 35.5221H142.183C141.552 35.5221 141.041 36.0335 141.041 36.6643C141.041 37.2952 141.552 37.8066 142.183 37.8066L151.939 37.8066C152.569 37.8066 153.081 37.2952 153.081 36.6643ZM121.014 84.4501C121.014 87.8903 118.225 90.6792 114.785 90.6792C111.345 90.6792 108.556 87.8903 108.556 84.4501C108.556 81.0099 111.345 78.2211 114.785 78.2211C118.225 78.2211 121.014 81.0099 121.014 84.4501ZM88.5052 103.36H97.1228C99.4151 100.979 102.635 99.4978 106.201 99.4978H123.591C130.551 99.4978 136.192 105.14 136.192 112.099C136.192 114.187 134.5 115.88 132.412 115.88H115.266C115.523 117.021 115.659 118.208 115.659 119.427C115.659 122.09 113.501 124.248 110.839 124.248H66.1714C63.5093 124.248 61.3512 122.09 61.3512 119.427C61.3512 110.554 68.5446 103.36 77.4185 103.36H88.5052ZM106.201 103.098C105.049 103.098 103.948 103.314 102.936 103.708C107.789 104.736 111.834 107.954 113.986 112.28H132.412C132.512 112.28 132.592 112.199 132.592 112.099C132.592 107.128 128.562 103.098 123.591 103.098H106.201ZM124.614 84.4501C124.614 89.8786 120.214 94.2792 114.785 94.2792C109.357 94.2792 104.956 89.8786 104.956 84.4501C104.956 79.0217 109.357 74.6211 114.785 74.6211C120.214 74.6211 124.614 79.0217 124.614 84.4501ZM100.9 84.169C100.9 91.0906 95.2892 96.7016 88.3676 96.7016C81.4461 96.7016 75.835 91.0906 75.835 84.169C75.835 77.2474 81.4461 71.6363 88.3676 71.6363C95.2892 71.6363 100.9 77.2474 100.9 84.169ZM21.6 139.743C21.6 142.362 23.7232 144.485 26.3423 144.485H36.0979C38.717 144.485 40.8402 142.362 40.8402 139.743C40.8402 137.124 38.717 135.001 36.0979 135.001H26.3423C23.7232 135.001 21.6 137.124 21.6 139.743ZM26.3423 140.885C25.7114 140.885 25.2 140.374 25.2 139.743C25.2 139.112 25.7114 138.601 26.3423 138.601L36.0979 138.601C36.7288 138.601 37.2402 139.112 37.2402 139.743C37.2402 140.374 36.7288 140.885 36.0979 140.885H26.3423ZM29.7 27.9002C29.7 25.4149 31.7147 23.4002 34.2 23.4002C36.6853 23.4002 38.7 25.4149 38.7 27.9002V38.7002C38.7 41.1855 36.6853 43.2002 34.2 43.2002C31.7147 43.2002 29.7 41.1855 29.7 38.7002V27.9002ZM34.2 27.0002C33.7029 27.0002 33.3 27.4031 33.3 27.9002V38.7002C33.3 39.1972 33.7029 39.6002 34.2 39.6002C34.6971 39.6002 35.1 39.1972 35.1 38.7002V27.9002C35.1 27.4031 34.6971 27.0002 34.2 27.0002ZM34.2 55.8002C31.7147 55.8002 29.7 53.7855 29.7 51.3002C29.7 48.8149 31.7147 46.8002 34.2 46.8002C36.6853 46.8002 38.7 48.8149 38.7 51.3002C38.7 53.7855 36.6853 55.8002 34.2 55.8002ZM33.3 51.3002C33.3 51.7972 33.7029 52.2002 34.2 52.2002C34.6971 52.2002 35.1 51.7972 35.1 51.3002C35.1 50.8031 34.6971 50.4002 34.2 50.4002C33.7029 50.4002 33.3 50.8031 33.3 51.3002Z" fill="#B3E5FC"/>
</svg>
