<svg width="39" height="39" viewBox="0 0 39 39" fill="none" xmlns="http://www.w3.org/2000/svg">
<rect x="0.5" y="0.5" width="38" height="38" rx="19" fill="#B3E5FC"/>
<rect x="0.5" y="0.5" width="38" height="38" rx="19" stroke="black"/>
<path d="M20.5 14.5C20.3667 14.5 20.25 14.45 20.15 14.35C20.05 14.25 20 14.1333 20 14C20 13.8667 20.05 13.75 20.15 13.65C20.25 13.55 20.3667 13.5 20.5 13.5C20.6333 13.5 20.75 13.55 20.85 13.65C20.95 13.75 21 13.8667 21 14C21 14.1333 20.95 14.25 20.85 14.35C20.75 14.45 20.6333 14.5 20.5 14.5ZM22.5 14.5C22.3667 14.5 22.25 14.45 22.15 14.35C22.05 14.25 22 14.1333 22 14C22 13.8667 22.05 13.75 22.15 13.65C22.25 13.55 22.3667 13.5 22.5 13.5C22.6333 13.5 22.75 13.55 22.85 13.65C22.95 13.75 23 13.8667 23 14C23 14.1333 22.95 14.25 22.85 14.35C22.75 14.45 22.6333 14.5 22.5 14.5ZM18.5 14.5C18.3667 14.5 18.25 14.45 18.15 14.35C18.05 14.25 18 14.1333 18 14C18 13.8667 18.05 13.75 18.15 13.65C18.25 13.55 18.3667 13.5 18.5 13.5C18.6333 13.5 18.75 13.55 18.85 13.65C18.95 13.75 19 13.8667 19 14C19 14.1333 18.95 14.25 18.85 14.35C18.75 14.45 18.6333 14.5 18.5 14.5ZM17.5 15.5C17.3667 15.5 17.25 15.45 17.15 15.35C17.05 15.25 17 15.1333 17 15C17 14.8667 17.05 14.75 17.15 14.65C17.25 14.55 17.3667 14.5 17.5 14.5C17.6333 14.5 17.75 14.55 17.85 14.65C17.95 14.75 18 14.8667 18 15C18 15.1333 17.95 15.25 17.85 15.35C17.75 15.45 17.6333 15.5 17.5 15.5ZM15.5 15.5C15.3667 15.5 15.25 15.45 15.15 15.35C15.05 15.25 15 15.1333 15 15C15 14.8667 15.05 14.75 15.15 14.65C15.25 14.55 15.3667 14.5 15.5 14.5C15.6333 14.5 15.75 14.55 15.85 14.65C15.95 14.75 16 14.8667 16 15C16 15.1333 15.95 15.25 15.85 15.35C15.75 15.45 15.6333 15.5 15.5 15.5ZM19.5 15.5C19.3667 15.5 19.25 15.45 19.15 15.35C19.05 15.25 19 15.1333 19 15C19 14.8667 19.05 14.75 19.15 14.65C19.25 14.55 19.3667 14.5 19.5 14.5C19.6333 14.5 19.75 14.55 19.85 14.65C19.95 14.75 20 14.8667 20 15C20 15.1333 19.95 15.25 19.85 15.35C19.75 15.45 19.6333 15.5 19.5 15.5ZM21.5 15.5C21.3667 15.5 21.25 15.45 21.15 15.35C21.05 15.25 21 15.1333 21 15C21 14.8667 21.05 14.75 21.15 14.65C21.25 14.55 21.3667 14.5 21.5 14.5C21.6333 14.5 21.75 14.55 21.85 14.65C21.95 14.75 22 14.8667 22 15C22 15.1333 21.95 15.25 21.85 15.35C21.75 15.45 21.6333 15.5 21.5 15.5ZM23.5 15.5C23.3667 15.5 23.25 15.45 23.15 15.35C23.05 15.25 23 15.1333 23 15C23 14.8667 23.05 14.75 23.15 14.65C23.25 14.55 23.3667 14.5 23.5 14.5C23.6333 14.5 23.75 14.55 23.85 14.65C23.95 14.75 24 14.8667 24 15C24 15.1333 23.95 15.25 23.85 15.35C23.75 15.45 23.6333 15.5 23.5 15.5ZM20.5 16.5C20.3667 16.5 20.25 16.45 20.15 16.35C20.05 16.25 20 16.1333 20 16C20 15.8667 20.05 15.75 20.15 15.65C20.25 15.55 20.3667 15.5 20.5 15.5C20.6333 15.5 20.75 15.55 20.85 15.65C20.95 15.75 21 15.8667 21 16C21 16.1333 20.95 16.25 20.85 16.35C20.75 16.45 20.6333 16.5 20.5 16.5ZM22.5 16.5C22.3667 16.5 22.25 16.45 22.15 16.35C22.05 16.25 22 16.1333 22 16C22 15.8667 22.05 15.75 22.15 15.65C22.25 15.55 22.3667 15.5 22.5 15.5C22.6333 15.5 22.75 15.55 22.85 15.65C22.95 15.75 23 15.8667 23 16C23 16.1333 22.95 16.25 22.85 16.35C22.75 16.45 22.6333 16.5 22.5 16.5ZM24.5 16.5C24.3667 16.5 24.25 16.45 24.15 16.35C24.05 16.25 24 16.1333 24 16C24 15.8667 24.05 15.75 24.15 15.65C24.25 15.55 24.3667 15.5 24.5 15.5C24.6333 15.5 24.75 15.55 24.85 15.65C24.95 15.75 25 15.8667 25 16C25 16.1333 24.95 16.25 24.85 16.35C24.75 16.45 24.6333 16.5 24.5 16.5ZM18.5 16.5C18.3667 16.5 18.25 16.45 18.15 16.35C18.05 16.25 18 16.1333 18 16C18 15.8667 18.05 15.75 18.15 15.65C18.25 15.55 18.3667 15.5 18.5 15.5C18.6333 15.5 18.75 15.55 18.85 15.65C18.95 15.75 19 15.8667 19 16C19 16.1333 18.95 16.25 18.85 16.35C18.75 16.45 18.6333 16.5 18.5 16.5ZM16.5 16.5C16.3667 16.5 16.25 16.45 16.15 16.35C16.05 16.25 16 16.1333 16 16C16 15.8667 16.05 15.75 16.15 15.65C16.25 15.55 16.3667 15.5 16.5 15.5C16.6333 15.5 16.75 15.55 16.85 15.65C16.95 15.75 17 15.8667 17 16C17 16.1333 16.95 16.25 16.85 16.35C16.75 16.45 16.6333 16.5 16.5 16.5ZM17.5 17.5C17.3667 17.5 17.25 17.45 17.15 17.35C17.05 17.25 17 17.1333 17 17C17 16.8667 17.05 16.75 17.15 16.65C17.25 16.55 17.3667 16.5 17.5 16.5C17.6333 16.5 17.75 16.55 17.85 16.65C17.95 16.75 18 16.8667 18 17C18 17.1333 17.95 17.25 17.85 17.35C17.75 17.45 17.6333 17.5 17.5 17.5ZM15.5 17.5C15.3667 17.5 15.25 17.45 15.15 17.35C15.05 17.25 15 17.1333 15 17C15 16.8667 15.05 16.75 15.15 16.65C15.25 16.55 15.3667 16.5 15.5 16.5C15.6333 16.5 15.75 16.55 15.85 16.65C15.95 16.75 16 16.8667 16 17C16 17.1333 15.95 17.25 15.85 17.35C15.75 17.45 15.6333 17.5 15.5 17.5ZM19.5 17.5C19.3667 17.5 19.25 17.45 19.15 17.35C19.05 17.25 19 17.1333 19 17C19 16.8667 19.05 16.75 19.15 16.65C19.25 16.55 19.3667 16.5 19.5 16.5C19.6333 16.5 19.75 16.55 19.85 16.65C19.95 16.75 20 16.8667 20 17C20 17.1333 19.95 17.25 19.85 17.35C19.75 17.45 19.6333 17.5 19.5 17.5ZM21.5 17.5C21.3667 17.5 21.25 17.45 21.15 17.35C21.05 17.25 21 17.1333 21 17C21 16.8667 21.05 16.75 21.15 16.65C21.25 16.55 21.3667 16.5 21.5 16.5C21.6333 16.5 21.75 16.55 21.85 16.65C21.95 16.75 22 16.8667 22 17C22 17.1333 21.95 17.25 21.85 17.35C21.75 17.45 21.6333 17.5 21.5 17.5ZM23.5 17.5C23.3667 17.5 23.25 17.45 23.15 17.35C23.05 17.25 23 17.1333 23 17C23 16.8667 23.05 16.75 23.15 16.65C23.25 16.55 23.3667 16.5 23.5 16.5C23.6333 16.5 23.75 16.55 23.85 16.65C23.95 16.75 24 16.8667 24 17C24 17.1333 23.95 17.25 23.85 17.35C23.75 17.45 23.6333 17.5 23.5 17.5ZM25.5 17.5C25.3667 17.5 25.25 17.45 25.15 17.35C25.05 17.25 25 17.1333 25 17C25 16.8667 25.05 16.75 25.15 16.65C25.25 16.55 25.3667 16.5 25.5 16.5C25.6333 16.5 25.75 16.55 25.85 16.65C25.95 16.75 26 16.8667 26 17C26 17.1333 25.95 17.25 25.85 17.35C25.75 17.45 25.6333 17.5 25.5 17.5ZM13.5 17.5C13.3667 17.5 13.25 17.45 13.15 17.35C13.05 17.25 13 17.1333 13 17C13 16.8667 13.05 16.75 13.15 16.65C13.25 16.55 13.3667 16.5 13.5 16.5C13.6333 16.5 13.75 16.55 13.85 16.65C13.95 16.75 14 16.8667 14 17C14 17.1333 13.95 17.25 13.85 17.35C13.75 17.45 13.6333 17.5 13.5 17.5ZM14.5 16.5C14.3667 16.5 14.25 16.4583 14.15 16.375C14.05 16.2917 14 16.1785 14 16.0356C14 15.8928 14.0451 15.7678 14.1354 15.6606C14.2257 15.5535 14.3438 15.5 14.4896 15.5C14.6354 15.5 14.7569 15.55 14.8542 15.65C14.9514 15.75 15 15.8667 15 16C15 16.1333 14.95 16.25 14.85 16.35C14.75 16.45 14.6333 16.5 14.5 16.5ZM16.5 14.5C16.3667 14.5 16.25 14.4549 16.15 14.3646C16.05 14.2743 16 14.1562 16 14.0104C16 13.8646 16.05 13.7431 16.15 13.6458C16.25 13.5486 16.3667 13.5 16.5 13.5C16.6333 13.5 16.75 13.55 16.85 13.65C16.95 13.75 17 13.8667 17 14C17 14.1333 16.95 14.25 16.85 14.35C16.75 14.45 16.6333 14.5 16.5 14.5ZM17.5 13.5C17.3667 13.5 17.25 13.45 17.15 13.35C17.05 13.25 17 13.1333 17 13C17 12.8667 17.05 12.75 17.15 12.65C17.25 12.55 17.3667 12.5 17.5 12.5C17.6333 12.5 17.75 12.55 17.85 12.65C17.95 12.75 18 12.8667 18 13C18 13.1333 17.95 13.25 17.85 13.35C17.75 13.45 17.6333 13.5 17.5 13.5ZM19.5 13.5C19.3667 13.5 19.25 13.45 19.15 13.35C19.05 13.25 19 13.1333 19 13C19 12.8667 19.05 12.75 19.15 12.65C19.25 12.55 19.3667 12.5 19.5 12.5C19.6333 12.5 19.75 12.55 19.85 12.65C19.95 12.75 20 12.8667 20 13C20 13.1333 19.95 13.25 19.85 13.35C19.75 13.45 19.6333 13.5 19.5 13.5ZM21.4792 13.5C21.3458 13.5 21.2292 13.4549 21.1292 13.3646C21.0292 13.2743 20.9792 13.1563 20.9792 13.0104C20.9792 12.8646 21.0292 12.7431 21.1292 12.6458C21.2292 12.5486 21.3458 12.5 21.4792 12.5C21.6125 12.5 21.7292 12.5486 21.8292 12.6458C21.9292 12.7431 21.9792 12.8646 21.9792 13.0104C21.9792 13.1563 21.9292 13.2743 21.8292 13.3646C21.7292 13.4549 21.6125 13.5 21.4792 13.5ZM17.0023 21C16.723 21 16.4861 20.9035 16.2917 20.7106C16.0972 20.5178 16 20.2817 16 20.0023C16 19.723 16.0965 19.4861 16.2894 19.2917C16.4822 19.0972 16.7183 19 16.9977 19C17.277 19 17.5139 19.0965 17.7083 19.2894C17.9028 19.4822 18 19.7183 18 19.9977C18 20.277 17.9035 20.5139 17.7106 20.7083C17.5178 20.9028 17.2817 21 17.0023 21ZM22.0023 21C21.723 21 21.4861 20.9035 21.2917 20.7106C21.0972 20.5178 21 20.2817 21 20.0023C21 19.723 21.0965 19.4861 21.2894 19.2917C21.4822 19.0972 21.7183 19 21.9977 19C22.277 19 22.5139 19.0965 22.7083 19.2894C22.9028 19.4822 23 19.7183 23 19.9977C23 20.277 22.9035 20.5139 22.7106 20.7083C22.5178 20.9028 22.2817 21 22.0023 21ZM19.5033 27.5C18.4079 27.5 17.3726 27.2901 16.3973 26.8704C15.422 26.4507 14.5703 25.8778 13.8421 25.1517C13.114 24.4256 12.5417 23.5751 12.125 22.6004C11.7083 21.6256 11.5 20.5907 11.5 19.4958C11.5 18.3875 11.7083 17.3507 12.125 16.3854C12.5417 15.4201 13.1146 14.5729 13.8438 13.8438C14.5729 13.1146 15.4249 12.5417 16.3996 12.125C17.3744 11.7083 18.4093 11.5 19.5042 11.5C20.6125 11.5 21.6493 11.7083 22.6146 12.125C23.5799 12.5417 24.4271 13.1146 25.1562 13.8438C25.8854 14.5729 26.4583 15.4201 26.875 16.3854C27.2917 17.3507 27.5 18.3875 27.5 19.4958C27.5 20.5907 27.2917 21.6256 26.875 22.6004C26.4583 23.5751 25.8854 24.4271 25.1562 25.1562C24.4271 25.8854 23.5799 26.4583 22.6146 26.875C21.6493 27.2917 20.6122 27.5 19.5033 27.5ZM19.4904 26C21.3024 26 22.8403 25.3678 24.1042 24.1035C25.3681 22.8392 26 21.3079 26 19.5096C26 17.6976 25.3681 16.1597 24.1042 14.8958C22.8403 13.6319 21.3024 13 19.4904 13C17.6921 13 16.1608 13.6319 14.8965 14.8958C13.6322 16.1597 13 17.6976 13 19.5096C13 21.3079 13.6322 22.8392 14.8965 24.1035C16.1608 25.3678 17.6921 26 19.4904 26Z" fill="#1C1B1F"/>
</svg>
